<svg xmlns="http://www.w3.org/2000/svg" viewBox="0 0 160 120" role="img" aria-labelledby="title desc">
  <title id="title">Greeting cards</title>
  <desc id="desc">Layered greeting cards and an envelope with a handwritten note</desc>
  <path d="M29 29h76v66H29z" fill="#fffaf3" stroke="#5f33a8" stroke-width="3" transform="rotate(-8 67 62)"/>
  <path d="M49 25h82v68H49z" fill="#f4ecfd" stroke="#4b2685" stroke-width="3" transform="rotate(7 90 59)"/>
  <path d="m50 50 40 29 40-29" fill="none" stroke="#a64d73" stroke-width="3" transform="rotate(7 90 59)"/>
  <path d="M54 65c13-9 24-9 34 0s20 9 34 0" fill="none" stroke="#5f33a8" stroke-width="3" stroke-linecap="round"/>
  <path d="M70 43c5-7 11-7 15 0 4-7 10-7 15 0" fill="none" stroke="#f1b86b" stroke-width="3" stroke-linecap="round"/>
  <path d="M65 82c7 4 15 5 23 2" fill="none" stroke="#4b2685" stroke-width="2.5" stroke-linecap="round"/>
  <circle cx="126" cy="28" r="7" fill="#f1b86b"/>
</svg>
